<svg id="b855a9e9-6059-4395-8816-d96c42924be1" data-name="logo" xmlns="http://www.w3.org/2000/svg" viewBox="0 0 665.95 127.34"><title>logo</title><path id="b373b311-f348-4597-aa75-cacd7eb2836a" data-name="h" d="M49.45,126.87V125a47.55,47.55,0,0,0,7.87-1.14c2.09-.52,3.14-1.72,3.14-3.58V76.54a59.52,59.52,0,0,0-.7-9.43,21.59,21.59,0,0,0-2.53-7.52,13,13,0,0,0-5-4.89,16.45,16.45,0,0,0-8-1.75,23,23,0,0,0-10.66,2.27,18.86,18.86,0,0,0-7,6.12,13,13,0,0,0-1,2.18A8.92,8.92,0,0,0,25,66.58v53.65a3.35,3.35,0,0,0,.87,2.45A5.46,5.46,0,0,0,28.1,124a16.09,16.09,0,0,0,3.15.61c1.16.12,2.33.29,3.49.52v1.75H0v-1.75a36.54,36.54,0,0,0,7.25-1.31,4.11,4.11,0,0,0,3.24-4.28V20.28a6.22,6.22,0,0,0-.27-2.1,3.93,3.93,0,0,0-1.48-1.57A16.87,16.87,0,0,0,5,14.25,48.37,48.37,0,0,1,.35,11.71v-1L23.77.05h1.36l-.52,60.64.35.18a32.34,32.34,0,0,1,3.74-5.6,33.18,33.18,0,0,1,6.36-5.94,40.75,40.75,0,0,1,8.79-4.8,28.77,28.77,0,0,1,10.89-2,21.07,21.07,0,0,1,9.66,2,16.24,16.24,0,0,1,6.27,5.59A23.56,23.56,0,0,1,74,58.59a55.23,55.23,0,0,1,1,10.66v51.46a2.64,2.64,0,0,0,1,2.1,7,7,0,0,0,2.63,1.31,26.83,26.83,0,0,0,3.32.7c1.16.18,2.27.32,3.32.44v1.57Z" transform="translate(0 -0.05)"/><path id="e09768d0-9eab-4d5f-80c1-7abe20dbb01b" data-name="a" d="M203.58,116.21a21.85,21.85,0,0,1-3.67,5.68,15,15,0,0,1-5.33,3.84,16.89,16.89,0,0,1-6.73,1.31,17.08,17.08,0,0,1-10.57-3.49q-4.64-3.49-4.63-12.23l-.35-.18a44.33,44.33,0,0,1-3.76,5.07,34.25,34.25,0,0,1-5.59,5.24,28,28,0,0,1-7.17,3.93,24.09,24.09,0,0,1-8.65,1.49,21.39,21.39,0,0,1-5.68-.79,13.5,13.5,0,0,1-5.24-2.79,15.36,15.36,0,0,1-3.84-5.16,17.83,17.83,0,0,1-1.49-7.69,14.26,14.26,0,0,1,3.93-9.43,44.39,44.39,0,0,1,9.7-8.22q5.78-3.66,10.22-6.29t7.78-4.45c2.21-1.23,4.17-2.27,5.86-3.15s3.11-1.66,4.28-2.36v-18a5.84,5.84,0,0,0-.62-1.66,9,9,0,0,0-2.09-2.7,13.85,13.85,0,0,0-4.11-2.54A17.4,17.4,0,0,0,159,50.51a16.22,16.22,0,0,0-5.51,1,19.74,19.74,0,0,0-4.8,2.44,17.21,17.21,0,0,0-3.32,3,4.39,4.39,0,0,0-1.23,2.54v7.86a5.47,5.47,0,0,1-2.53,4.37,9,9,0,0,1-5.51,1.92,6.57,6.57,0,0,1-4.8-2,6.35,6.35,0,0,1-2-4.63,7.33,7.33,0,0,1,1.05-3.84A13.44,13.44,0,0,1,133,60a20,20,0,0,1,3.41-2.44c1.22-.7,2.3-1.34,3.23-1.93q4.55-2.61,9.26-5.06c3.15-1.63,6.14-3,9-4.2a83.32,83.32,0,0,1,7.86-2.79,21.68,21.68,0,0,1,5.86-1.05,16.57,16.57,0,0,1,8.56,2.36,14.3,14.3,0,0,1,5.76,5.8A10.67,10.67,0,0,1,186.8,55q.18,3.06.18,6c0,4.19,0,8-.09,11.36s-.09,6.65-.09,9.78,0,6.38-.09,9.7-.08,7-.08,10.93q0,7.86,2.7,10.39a8.86,8.86,0,0,0,6.21,2.54c2.68,0,4.66-.56,5.94-1.66a8.38,8.38,0,0,0,2.65-4.32h1A18.26,18.26,0,0,1,203.58,116.21ZM172.65,79.34a71,71,0,0,1-7.87,4.8q-4.71,2.53-9.17,5.51a41.15,41.15,0,0,0-7.69,6.55,11.78,11.78,0,0,0-3.23,8.13,12.32,12.32,0,0,0,3.14,8.21,10.3,10.3,0,0,0,8.22,3.67,28.09,28.09,0,0,0,8-1,15.41,15.41,0,0,0,6.47-4,6.35,6.35,0,0,0,2.1-4.89Z" transform="translate(0 -0.05)"/><path id="a6355246-93a9-4626-89b9-e38a47377313" data-name="n" d="M292.7,126.87V125a39,39,0,0,0,7.51-1.14,3.44,3.44,0,0,0,2.8-3.58v-44q0-10.12-3.85-16.33t-12.93-6.21a17.62,17.62,0,0,0-9.61,2.45,52.87,52.87,0,0,0-8.56,7.16v57.32a4.5,4.5,0,0,0,1.22,2.53,5.13,5.13,0,0,0,2.1,1.14,12.79,12.79,0,0,0,2.75.42,24.72,24.72,0,0,1,3.32.43v1.75H243.77v-1.75a22.7,22.7,0,0,0,6.9-1.57,4.16,4.16,0,0,0,2.88-4V59.42a6.22,6.22,0,0,0-.26-2.1,4,4,0,0,0-1.48-1.57l-3.68-2a43.61,43.61,0,0,0-4.2-2v-1l22.89-8.21h1.05V61.37l.35.18A62.1,62.1,0,0,1,273,55.17,41.29,41.29,0,0,1,279.54,49a36.88,36.88,0,0,1,8-4.63,23.23,23.23,0,0,1,9-1.83q10.11,0,15.5,7.51t5.4,19.4v51.3a2.58,2.58,0,0,0,1.14,2.1,7.79,7.79,0,0,0,2.7,1.31,26.44,26.44,0,0,0,3.41.7c1.22.18,2.36.32,3.41.44v1.57Z" transform="translate(0 -0.05)"/><path id="b48a3165-b482-4f19-9464-d5ae5e0b15ae" data-name="o" d="M445.77,100.92a45.64,45.64,0,0,1-8.91,13.89,40.29,40.29,0,0,1-13,9.26,37.82,37.82,0,0,1-15.64,3.32A44.53,44.53,0,0,1,394.07,125a40.05,40.05,0,0,1-13.55-7.78,40.47,40.47,0,0,1-10.13-13.63,45.07,45.07,0,0,1-3.93-19.48,41.58,41.58,0,0,1,42.11-41.59,41.78,41.78,0,0,1,27.17,10.4,39.84,39.84,0,0,1,9.61,12.93,41.51,41.51,0,0,1,3.78,18.26A43.37,43.37,0,0,1,445.77,100.92ZM431.53,71.13a46.38,46.38,0,0,0-4.28-12.59A28,28,0,0,0,419.38,49a19.23,19.23,0,0,0-12-3.76,16.46,16.46,0,0,0-10.31,3.5,30.49,30.49,0,0,0-7.78,9.17,47.31,47.31,0,0,0-4.94,12.78,62.56,62.56,0,0,0-1.66,14.42,78.32,78.32,0,0,0,1.4,15.2A41.24,41.24,0,0,0,388.63,113a25.36,25.36,0,0,0,8,8.73A20.64,20.64,0,0,0,408.34,125a16.61,16.61,0,0,0,11.44-4.11,31,31,0,0,0,7.52-10.31,55,55,0,0,0,4.19-13.37A74.9,74.9,0,0,0,432.8,83.9,68.43,68.43,0,0,0,431.53,71.13Z" transform="translate(0 -0.05)"/><path id="a4877fb9-ab17-4758-97cb-8f1d9a330972" data-name="r" d="M549.22,58.11A6.88,6.88,0,0,1,544,60.64a8.85,8.85,0,0,1-4.46-1,13.91,13.91,0,0,1-2.88-2.18A18.33,18.33,0,0,0,534,55.27a7.13,7.13,0,0,0-7.95.53,19.08,19.08,0,0,0-3.76,3.75,30.08,30.08,0,0,0-3.18,5.16q-1.39,2.88-2.44,5.5v50.33A4.24,4.24,0,0,0,519,123a13.29,13.29,0,0,0,3.93,1.22,38.33,38.33,0,0,0,4.54.44,27,27,0,0,1,4.11.43v1.75H492.43v-1.75a22.7,22.7,0,0,0,6.9-1.57,4.16,4.16,0,0,0,2.88-4v-59a6.48,6.48,0,0,0-.26-2.1,4,4,0,0,0-1.49-1.57c-1-.58-2.27-1.31-3.66-2.19a28.82,28.82,0,0,0-4.2-2.18v-1l22.89-8.91h1l-.35,24.29h.35q.87-2.1,2.8-6.12a52.24,52.24,0,0,1,4.89-8.12,30.5,30.5,0,0,1,7.17-7.08,16.13,16.13,0,0,1,9.61-3,11,11,0,0,1,7.42,2.62,8.38,8.38,0,0,1,3.06,6.64A9.22,9.22,0,0,1,549.22,58.11Z" transform="translate(0 -0.05)"/><path id="af0a4de8-fdfa-455e-b264-f1b10d9095ec" data-name="a" d="M664.37,116.21a21.19,21.19,0,0,1-3.67,5.68,15,15,0,0,1-5.32,3.84,16.89,16.89,0,0,1-6.73,1.31,17.06,17.06,0,0,1-10.52-3.49q-4.64-3.49-4.63-12.23l-.35-.18a44.33,44.33,0,0,1-3.76,5.07,34.25,34.25,0,0,1-5.59,5.24,28,28,0,0,1-7.17,3.93,24.09,24.09,0,0,1-8.65,1.49,21.39,21.39,0,0,1-5.68-.79,13.5,13.5,0,0,1-5.24-2.79,15.36,15.36,0,0,1-3.84-5.16,17.83,17.83,0,0,1-1.49-7.69,14.26,14.26,0,0,1,3.93-9.43,44.12,44.12,0,0,1,9.7-8.22q5.77-3.66,10.22-6.29t7.78-4.45c2.21-1.23,4.16-2.27,5.85-3.15s3.12-1.66,4.29-2.36v-18a5.84,5.84,0,0,0-.62-1.66,9.16,9.16,0,0,0-2.09-2.7,13.85,13.85,0,0,0-4.11-2.54,17.4,17.4,0,0,0-6.81-1.13,16.22,16.22,0,0,0-5.51,1A19.8,19.8,0,0,0,609.55,54a17.15,17.15,0,0,0-3.31,3A4.39,4.39,0,0,0,605,59.49v7.86a5.47,5.47,0,0,1-2.53,4.37A9,9,0,0,1,597,73.64a6.57,6.57,0,0,1-4.8-2,6.35,6.35,0,0,1-2-4.63,7.28,7.28,0,0,1,1-3.84A13.44,13.44,0,0,1,593.79,60a20,20,0,0,1,3.41-2.44c1.22-.7,2.29-1.34,3.23-1.93Q605,53,609.69,50.59c3.15-1.63,6.14-3,9-4.2a83.32,83.32,0,0,1,7.86-2.79,21.68,21.68,0,0,1,5.86-1.05A16.57,16.57,0,0,1,641,44.91a14.3,14.3,0,0,1,5.76,5.8A10.67,10.67,0,0,1,647.6,55c.11,2,.16,4,.17,6,0,4.19,0,8-.08,11.36s-.08,6.65-.09,9.78,0,6.38-.09,9.7-.09,7-.09,10.93q0,7.86,2.71,10.39a8.86,8.86,0,0,0,6.21,2.54c2.68,0,4.65-.56,5.94-1.66a8.46,8.46,0,0,0,2.62-4.29H666A18.09,18.09,0,0,1,664.37,116.21ZM633.45,79.34a71,71,0,0,1-7.87,4.8q-4.71,2.53-9.17,5.51a41.15,41.15,0,0,0-7.69,6.55,11.78,11.78,0,0,0-3.23,8.13,12.32,12.32,0,0,0,3.14,8.21,10.29,10.29,0,0,0,8.21,3.67,28.09,28.09,0,0,0,8-1,15.41,15.41,0,0,0,6.47-4,6.35,6.35,0,0,0,2.1-4.89Z" transform="translate(0 -0.05)"/></svg>