<svg data-name="logo" xmlns="http://www.w3.org/2000/svg" viewBox="0 0 665.95 127.34"><path data-name="h" d="M49.45 126.82v-1.87a47.55 47.55 0 007.87-1.14c2.09-.52 3.14-1.72 3.14-3.58V76.49a59.52 59.52 0 00-.7-9.43 21.59 21.59 0 00-2.53-7.52 13 13 0 00-5-4.89 16.45 16.45 0 00-8-1.75 23 23 0 00-10.66 2.27 18.86 18.86 0 00-7 6.12 13 13 0 00-1 2.18 8.92 8.92 0 00-.57 3.06v53.65a3.35 3.35 0 00.87 2.45 5.46 5.46 0 002.23 1.32 16.09 16.09 0 003.15.61c1.16.12 2.33.29 3.49.52v1.75H0v-1.75a36.54 36.54 0 007.25-1.31 4.11 4.11 0 003.24-4.28V20.23a6.22 6.22 0 00-.27-2.1 3.93 3.93 0 00-1.48-1.57A16.87 16.87 0 005 14.2a48.37 48.37 0 01-4.65-2.54v-1L23.77 0h1.36l-.52 60.64.35.18a32.34 32.34 0 013.74-5.6 33.18 33.18 0 016.36-5.94 40.75 40.75 0 018.79-4.8 28.77 28.77 0 0110.89-2 21.07 21.07 0 019.66 2 16.24 16.24 0 016.27 5.59A23.56 23.56 0 0174 58.54a55.23 55.23 0 011 10.66v51.46a2.64 2.64 0 001 2.1 7 7 0 002.63 1.31 26.83 26.83 0 003.32.7c1.16.18 2.27.32 3.32.44v1.57z"/><path data-name="a" d="M203.58 116.16a21.85 21.85 0 01-3.67 5.68 15 15 0 01-5.33 3.84 16.89 16.89 0 01-6.73 1.31 17.08 17.08 0 01-10.57-3.49q-4.64-3.49-4.63-12.23l-.35-.18a44.33 44.33 0 01-3.76 5.07 34.25 34.25 0 01-5.59 5.24 28 28 0 01-7.17 3.93 24.09 24.09 0 01-8.65 1.49 21.39 21.39 0 01-5.68-.79 13.5 13.5 0 01-5.24-2.79 15.36 15.36 0 01-3.84-5.16 17.83 17.83 0 01-1.49-7.69 14.26 14.26 0 013.93-9.43 44.39 44.39 0 019.7-8.22q5.78-3.66 10.22-6.29t7.78-4.45c2.21-1.23 4.17-2.27 5.86-3.15s3.11-1.66 4.28-2.36v-18a5.84 5.84 0 00-.62-1.66 9 9 0 00-2.09-2.7 13.85 13.85 0 00-4.11-2.54 17.4 17.4 0 00-6.83-1.13 16.22 16.22 0 00-5.51 1 19.74 19.74 0 00-4.8 2.44 17.21 17.21 0 00-3.32 3 4.39 4.39 0 00-1.23 2.54v7.86a5.47 5.47 0 01-2.53 4.37 9 9 0 01-5.51 1.92 6.57 6.57 0 01-4.8-2 6.35 6.35 0 01-2-4.63 7.33 7.33 0 011.05-3.84 13.44 13.44 0 012.65-3.17 20 20 0 013.41-2.44c1.22-.7 2.3-1.34 3.23-1.93q4.55-2.61 9.26-5.06c3.15-1.63 6.14-3 9-4.2a83.32 83.32 0 017.86-2.79 21.68 21.68 0 015.86-1.05 16.57 16.57 0 018.56 2.36 14.3 14.3 0 015.76 5.8 10.67 10.67 0 01.86 4.31q.18 3.06.18 6c0 4.19 0 8-.09 11.36s-.09 6.65-.09 9.78 0 6.38-.09 9.7-.08 7-.08 10.93q0 7.86 2.7 10.39a8.86 8.86 0 006.21 2.54c2.68 0 4.66-.56 5.94-1.66a8.38 8.38 0 002.65-4.32h1a18.26 18.26 0 01-1.55 6.49zm-30.93-36.87a71 71 0 01-7.87 4.8q-4.71 2.53-9.17 5.51a41.15 41.15 0 00-7.69 6.55 11.78 11.78 0 00-3.23 8.13 12.32 12.32 0 003.14 8.21 10.3 10.3 0 008.22 3.67 28.09 28.09 0 008-1 15.41 15.41 0 006.47-4 6.35 6.35 0 002.1-4.89z"/><path data-name="n" d="M292.7 126.82v-1.87a39 39 0 007.51-1.14 3.44 3.44 0 002.8-3.58v-44q0-10.12-3.85-16.33t-12.93-6.21a17.62 17.62 0 00-9.61 2.45 52.87 52.87 0 00-8.56 7.16v57.32a4.5 4.5 0 001.22 2.53 5.13 5.13 0 002.1 1.14 12.79 12.79 0 002.75.42 24.72 24.72 0 013.32.43v1.75h-33.68v-1.75a22.7 22.7 0 006.9-1.57 4.16 4.16 0 002.88-4v-60.2a6.22 6.22 0 00-.26-2.1 4 4 0 00-1.48-1.57l-3.68-2a43.61 43.61 0 00-4.2-2v-1l22.89-8.21h1.05v18.83l.35.18a62.1 62.1 0 014.78-6.38 41.29 41.29 0 016.54-6.17 36.88 36.88 0 018-4.63 23.23 23.23 0 019-1.83q10.11 0 15.5 7.51t5.4 19.4v51.3a2.58 2.58 0 001.14 2.1 7.79 7.79 0 002.7 1.31 26.44 26.44 0 003.41.7c1.22.18 2.36.32 3.41.44v1.57z"/><path data-name="o" d="M445.77 100.87a45.64 45.64 0 01-8.91 13.89 40.29 40.29 0 01-13 9.26 37.82 37.82 0 01-15.64 3.32 44.53 44.53 0 01-14.15-2.39 40.05 40.05 0 01-13.55-7.78 40.47 40.47 0 01-10.13-13.63 45.07 45.07 0 01-3.93-19.48 41.58 41.58 0 0142.11-41.59 41.78 41.78 0 0127.17 10.4 39.84 39.84 0 019.61 12.93 41.51 41.51 0 013.78 18.26 43.37 43.37 0 01-3.36 16.81zm-14.24-29.79a46.38 46.38 0 00-4.28-12.59 28 28 0 00-7.87-9.54 19.23 19.23 0 00-12-3.76 16.46 16.46 0 00-10.31 3.5 30.49 30.49 0 00-7.78 9.17 47.31 47.31 0 00-4.94 12.78 62.56 62.56 0 00-1.66 14.42 78.32 78.32 0 001.4 15.2 41.24 41.24 0 004.54 12.69 25.36 25.36 0 008 8.73 20.64 20.64 0 0011.71 3.27 16.61 16.61 0 0011.44-4.11 31 31 0 007.52-10.31 55 55 0 004.19-13.37 74.9 74.9 0 001.31-13.31 68.43 68.43 0 00-1.27-12.77z"/><path data-name="r" d="M549.22 58.06a6.88 6.88 0 01-5.22 2.53 8.85 8.85 0 01-4.46-1 13.91 13.91 0 01-2.88-2.18 18.33 18.33 0 00-2.66-2.19 7.13 7.13 0 00-7.95.53 19.08 19.08 0 00-3.76 3.75 30.08 30.08 0 00-3.18 5.16q-1.39 2.88-2.44 5.5v50.33a4.24 4.24 0 002.33 2.46 13.29 13.29 0 003.93 1.22 38.33 38.33 0 004.54.44 27 27 0 014.11.43v1.75h-39.15v-1.75a22.7 22.7 0 006.9-1.57 4.16 4.16 0 002.88-4v-59a6.48 6.48 0 00-.26-2.1 4 4 0 00-1.49-1.57c-1-.58-2.27-1.31-3.66-2.19a28.82 28.82 0 00-4.2-2.18v-1l22.89-8.91h1l-.35 24.29h.35q.87-2.1 2.8-6.12a52.24 52.24 0 014.89-8.12 30.5 30.5 0 017.17-7.08 16.13 16.13 0 019.61-3 11 11 0 017.42 2.62 8.38 8.38 0 013.06 6.64 9.22 9.22 0 01-2.22 6.31z"/><path data-name="a" d="M664.37 116.16a21.19 21.19 0 01-3.67 5.68 15 15 0 01-5.32 3.84 16.89 16.89 0 01-6.73 1.31 17.06 17.06 0 01-10.52-3.49q-4.64-3.49-4.63-12.23l-.35-.18a44.33 44.33 0 01-3.76 5.07 34.25 34.25 0 01-5.59 5.24 28 28 0 01-7.17 3.93 24.09 24.09 0 01-8.65 1.49 21.39 21.39 0 01-5.68-.79 13.5 13.5 0 01-5.24-2.79 15.36 15.36 0 01-3.84-5.16 17.83 17.83 0 01-1.49-7.69 14.26 14.26 0 013.93-9.43 44.12 44.12 0 019.7-8.22q5.77-3.66 10.22-6.29t7.78-4.45c2.21-1.23 4.16-2.27 5.85-3.15s3.12-1.66 4.29-2.36v-18a5.84 5.84 0 00-.62-1.66 9.16 9.16 0 00-2.09-2.7 13.85 13.85 0 00-4.11-2.54 17.4 17.4 0 00-6.81-1.13 16.22 16.22 0 00-5.51 1 19.8 19.8 0 00-4.81 2.49 17.15 17.15 0 00-3.31 3 4.39 4.39 0 00-1.24 2.49v7.86a5.47 5.47 0 01-2.53 4.37 9 9 0 01-5.47 1.92 6.57 6.57 0 01-4.8-2 6.35 6.35 0 01-2-4.63 7.28 7.28 0 011-3.84 13.44 13.44 0 012.59-3.17 20 20 0 013.41-2.44c1.22-.7 2.29-1.34 3.23-1.93q4.57-2.63 9.26-5.04c3.15-1.63 6.14-3 9-4.2a83.32 83.32 0 017.86-2.79 21.68 21.68 0 015.86-1.05 16.57 16.57 0 018.59 2.36 14.3 14.3 0 015.76 5.8 10.67 10.67 0 01.84 4.29c.11 2 .16 4 .17 6 0 4.19 0 8-.08 11.36s-.08 6.65-.09 9.78 0 6.38-.09 9.7-.09 7-.09 10.93q0 7.86 2.71 10.39a8.86 8.86 0 006.21 2.54c2.68 0 4.65-.56 5.94-1.66a8.46 8.46 0 002.62-4.29h1.1a18.09 18.09 0 01-1.63 6.46zm-30.92-36.87a71 71 0 01-7.87 4.8q-4.71 2.53-9.17 5.51a41.15 41.15 0 00-7.69 6.55 11.78 11.78 0 00-3.23 8.13 12.32 12.32 0 003.14 8.21 10.29 10.29 0 008.21 3.67 28.09 28.09 0 008-1 15.41 15.41 0 006.47-4 6.35 6.35 0 002.1-4.89z"/></svg>